<svg width="264" height="32" viewBox="0 0 264 32" fill="none" xmlns="http://www.w3.org/2000/svg">
<path d="M24.3973 0H30.707V31.5482H24.3973V0Z" fill="white"/>
<path d="M0 0H6.30965V31.5482H0V0Z" fill="white"/>
<path d="M30.707 8.53206e-07L24.3973 6.88e-07L12.1987 31.5483L18.507 31.5483L30.707 8.53206e-07Z" fill="#3F3D56"/>
<path d="M0 1.35637e-06L6.30965 0L18.507 31.5483L12.1987 31.5483L0 1.35637e-06Z" fill="#3F3D56"/>
<path d="M48.712 24L43.144 7.704H44.872L48.136 17.376L48.76 19.248C48.984 19.984 49.24 20.768 49.528 21.6C49.656 21.2 49.912 20.44 50.296 19.32C50.68 18.2 50.904 17.552 50.968 17.376L54.184 7.704H55.816L50.248 24H48.712ZM59.2729 15.048C58.8249 15.944 58.6009 17.024 58.6009 18.288C58.6009 19.312 58.7449 20.208 59.0329 20.976C59.3209 21.856 59.8329 22.464 60.5689 22.8C60.9529 22.992 61.3929 23.088 61.8889 23.088C62.8649 23.088 63.6249 22.752 64.1689 22.08C64.6489 21.488 64.9529 20.696 65.0809 19.704C65.1449 19.32 65.1769 18.848 65.1769 18.288C65.1769 17.312 65.0329 16.424 64.7449 15.624C64.4249 14.744 63.9129 14.136 63.2089 13.8C62.7769 13.624 62.3369 13.536 61.8889 13.536C60.6409 13.536 59.7689 14.04 59.2729 15.048ZM65.4409 13.92C66.3369 14.944 66.7849 16.4 66.7849 18.288C66.7849 20.176 66.3449 21.648 65.4649 22.704C64.6009 23.744 63.4089 24.264 61.8889 24.264C60.3689 24.264 59.1689 23.744 58.2889 22.704C57.4249 21.664 56.9929 20.2 56.9929 18.312C56.9929 16.408 57.4329 14.944 58.3129 13.92C59.1929 12.88 60.3849 12.36 61.8889 12.36C63.3769 12.36 64.5609 12.88 65.4409 13.92ZM69.3083 24V7.584H70.8923V24H69.3083ZM81.5558 12.6H83.1398V24H81.6038V21.864C81.3158 22.616 80.7958 23.208 80.0438 23.64C79.2918 24.056 78.4838 24.264 77.6198 24.264C76.6438 24.264 75.8838 24.056 75.3398 23.64C74.8278 23.272 74.4598 22.76 74.2358 22.104C74.0278 21.496 73.9078 20.84 73.8758 20.136C73.8598 19.944 73.8518 19.616 73.8518 19.152V12.6H75.4358V19.488C75.4358 20.688 75.6198 21.584 75.9878 22.176C76.3718 22.752 77.0038 23.04 77.8838 23.04C78.9558 23.04 79.8118 22.704 80.4518 22.032C80.9958 21.488 81.3398 20.84 81.4838 20.088C81.5318 19.784 81.5558 19.472 81.5558 19.152V12.6ZM86.3691 24V12.6H87.9051V12.96V13.656V14.448V14.76C88.2091 13.944 88.7691 13.328 89.5851 12.912C90.3531 12.544 91.1211 12.36 91.8891 12.36C92.7531 12.36 93.4571 12.528 94.0011 12.864C94.5611 13.216 94.9451 13.624 95.1531 14.088C95.3931 14.648 95.5531 15.2 95.6331 15.744C95.6651 16.192 95.6811 16.48 95.6811 16.608V17.496V24H94.1211V17.304C94.1211 16.408 94.0251 15.648 93.8331 15.024C93.6251 14.432 93.2411 14.032 92.6811 13.824C92.4091 13.712 92.0651 13.656 91.6491 13.656C90.5451 13.656 89.6971 13.952 89.1051 14.544C88.5931 15.056 88.2411 15.84 88.0491 16.896C87.9691 17.408 87.9291 17.92 87.9291 18.432V24H86.3691ZM103.935 23.64C103.375 24.008 102.719 24.192 101.967 24.192C100.975 24.192 100.255 23.896 99.8069 23.304C99.3749 22.696 99.1589 21.72 99.1589 20.376V13.728H97.4789V12.6H99.2789V8.976L100.767 8.568V12.6H103.239V13.728H100.767V21.096C100.767 22.36 101.279 22.992 102.303 22.992C102.639 22.992 103.087 22.864 103.647 22.608L103.935 23.64ZM113.123 17.352C113.091 14.808 112.075 13.536 110.075 13.536C109.051 13.536 108.283 13.912 107.771 14.664C107.259 15.368 106.955 16.264 106.859 17.352H113.123ZM113.579 13.92C114.283 14.912 114.635 16.184 114.635 17.736C114.635 18.04 114.627 18.256 114.611 18.384H106.835C106.835 19.744 107.091 20.84 107.603 21.672C108.163 22.616 109.019 23.088 110.171 23.088C111.659 23.088 112.619 22.432 113.051 21.12L114.275 21.408C114.099 22.016 113.795 22.544 113.363 22.992C112.947 23.44 112.467 23.76 111.923 23.952C111.427 24.128 110.859 24.232 110.219 24.264H110.171C108.475 24.264 107.211 23.656 106.379 22.44C105.611 21.352 105.227 19.968 105.227 18.288C105.227 16.496 105.659 15.064 106.523 13.992C107.403 12.904 108.603 12.36 110.123 12.36C111.675 12.36 112.827 12.88 113.579 13.92ZM124.537 17.352C124.505 14.808 123.489 13.536 121.489 13.536C120.465 13.536 119.697 13.912 119.185 14.664C118.673 15.368 118.369 16.264 118.273 17.352H124.537ZM124.993 13.92C125.697 14.912 126.049 16.184 126.049 17.736C126.049 18.04 126.041 18.256 126.025 18.384H118.249C118.249 19.744 118.505 20.84 119.017 21.672C119.577 22.616 120.433 23.088 121.585 23.088C123.073 23.088 124.033 22.432 124.465 21.12L125.689 21.408C125.513 22.016 125.209 22.544 124.777 22.992C124.361 23.44 123.881 23.76 123.337 23.952C122.841 24.128 122.273 24.232 121.633 24.264H121.585C119.889 24.264 118.625 23.656 117.793 22.44C117.025 21.352 116.641 19.968 116.641 18.288C116.641 16.496 117.073 15.064 117.937 13.992C118.817 12.904 120.017 12.36 121.537 12.36C123.089 12.36 124.241 12.88 124.993 13.92ZM129.927 12.6V14.736C130.135 14.256 130.431 13.84 130.815 13.488C131.199 13.136 131.607 12.896 132.039 12.768C132.423 12.656 132.847 12.6 133.311 12.6V14.04C132.079 14.04 131.207 14.456 130.695 15.288C130.215 16.04 129.975 16.968 129.975 18.072V24H128.391V12.6H129.927ZM140.187 24V7.728H142.539L147.747 19.488L153.099 7.728H155.211V24H153.747V9.792L148.443 21.216H146.955L141.747 9.744V24H140.187ZM165.259 22.704C163.979 23.744 162.619 24.264 161.179 24.264C160.203 24.264 159.403 24 158.779 23.472C158.171 22.944 157.867 22.208 157.867 21.264C157.867 20.56 158.075 19.928 158.491 19.368C158.763 19 159.323 18.64 160.171 18.288C160.651 18.112 161.459 17.92 162.595 17.712C162.787 17.664 163.275 17.584 164.059 17.472L165.163 17.328V16.848C165.163 15.616 164.963 14.768 164.563 14.304C164.163 13.824 163.467 13.584 162.475 13.584C161.115 13.584 160.051 14.064 159.283 15.024C159.283 15.008 158.963 14.704 158.323 14.112C159.251 12.944 160.667 12.36 162.571 12.36C165.355 12.36 166.747 13.736 166.747 16.488V24H165.427L165.259 22.704ZM165.163 18.36L164.059 18.552C162.859 18.76 162.003 18.92 161.491 19.032C160.835 19.208 160.307 19.456 159.907 19.776C159.539 20.064 159.355 20.488 159.355 21.048C159.355 22.472 160.059 23.184 161.467 23.184C162.651 23.184 163.883 22.64 165.163 21.552V18.36ZM169.619 24V12.6H171.155V12.96V13.656V14.448V14.76C171.459 13.944 172.019 13.328 172.835 12.912C173.603 12.544 174.371 12.36 175.139 12.36C176.003 12.36 176.707 12.528 177.251 12.864C177.811 13.216 178.195 13.624 178.403 14.088C178.643 14.648 178.803 15.2 178.883 15.744C178.915 16.192 178.931 16.48 178.931 16.608V17.496V24H177.371V17.304C177.371 16.408 177.275 15.648 177.083 15.024C176.875 14.432 176.491 14.032 175.931 13.824C175.659 13.712 175.315 13.656 174.899 13.656C173.795 13.656 172.947 13.952 172.355 14.544C171.843 15.056 171.491 15.84 171.299 16.896C171.219 17.408 171.179 17.92 171.179 18.432V24H169.619ZM188.697 22.704C187.417 23.744 186.057 24.264 184.617 24.264C183.641 24.264 182.841 24 182.217 23.472C181.609 22.944 181.305 22.208 181.305 21.264C181.305 20.56 181.513 19.928 181.929 19.368C182.201 19 182.761 18.64 183.609 18.288C184.089 18.112 184.897 17.92 186.033 17.712C186.225 17.664 186.713 17.584 187.497 17.472L188.601 17.328V16.848C188.601 15.616 188.401 14.768 188.001 14.304C187.601 13.824 186.905 13.584 185.913 13.584C184.553 13.584 183.489 14.064 182.721 15.024C182.721 15.008 182.401 14.704 181.761 14.112C182.689 12.944 184.105 12.36 186.009 12.36C188.793 12.36 190.185 13.736 190.185 16.488V24H188.865L188.697 22.704ZM188.601 18.36L187.497 18.552C186.297 18.76 185.441 18.92 184.929 19.032C184.273 19.208 183.745 19.456 183.345 19.776C182.977 20.064 182.793 20.488 182.793 21.048C182.793 22.472 183.497 23.184 184.905 23.184C186.089 23.184 187.321 22.64 188.601 21.552V18.36ZM193.465 26.976L194.401 26.088C194.993 27.064 196.057 27.552 197.593 27.552C199.689 27.552 200.737 26.264 200.737 23.688V22.56C199.873 23.696 198.729 24.264 197.305 24.264C195.849 24.264 194.713 23.712 193.897 22.608C193.097 21.504 192.697 20.016 192.697 18.144C192.697 15.808 193.377 14.136 194.737 13.128C195.441 12.616 196.273 12.36 197.233 12.36C198.705 12.36 199.921 12.936 200.881 14.088L200.977 12.6H202.225V23.784C202.225 25.288 201.809 26.496 200.977 27.408C200.145 28.32 198.985 28.776 197.497 28.776C195.529 28.776 194.185 28.176 193.465 26.976ZM200.737 17.952C200.737 16.496 200.473 15.424 199.945 14.736C199.497 14.144 198.937 13.776 198.265 13.632C198.009 13.568 197.721 13.536 197.401 13.536C196.329 13.536 195.529 14.008 195.001 14.952C194.505 15.8 194.257 16.848 194.257 18.096C194.257 19.68 194.529 20.912 195.073 21.792C195.633 22.656 196.393 23.088 197.353 23.088C198.041 23.088 198.657 22.912 199.201 22.56C199.809 22.176 200.249 21.44 200.521 20.352C200.665 19.776 200.737 19.096 200.737 18.312V17.952ZM212.569 17.352C212.537 14.808 211.521 13.536 209.521 13.536C208.497 13.536 207.729 13.912 207.217 14.664C206.705 15.368 206.401 16.264 206.305 17.352H212.569ZM213.025 13.92C213.729 14.912 214.081 16.184 214.081 17.736C214.081 18.04 214.073 18.256 214.057 18.384H206.281C206.281 19.744 206.537 20.84 207.049 21.672C207.609 22.616 208.465 23.088 209.617 23.088C211.105 23.088 212.065 22.432 212.497 21.12L213.721 21.408C213.545 22.016 213.241 22.544 212.809 22.992C212.393 23.44 211.913 23.76 211.369 23.952C210.873 24.128 210.305 24.232 209.665 24.264H209.617C207.921 24.264 206.657 23.656 205.825 22.44C205.057 21.352 204.673 19.968 204.673 18.288C204.673 16.496 205.105 15.064 205.969 13.992C206.849 12.904 208.049 12.36 209.569 12.36C211.121 12.36 212.273 12.88 213.025 13.92ZM218.031 24H216.471V12.6H217.983L218.031 14.424C218.831 13.048 220.039 12.36 221.655 12.36C223.335 12.36 224.399 13.152 224.847 14.736C225.215 13.968 225.735 13.384 226.407 12.984C227.095 12.568 227.855 12.36 228.687 12.36C229.839 12.36 230.711 12.744 231.303 13.512C231.783 14.136 232.071 15 232.167 16.104C232.199 16.712 232.215 17.208 232.215 17.592V24H230.655V17.256C230.655 16.12 230.495 15.224 230.175 14.568C229.823 13.88 229.231 13.536 228.399 13.536C227.791 13.536 227.231 13.728 226.719 14.112C226.207 14.48 225.807 14.968 225.519 15.576C225.247 16.2 225.111 16.808 225.111 17.4V24H223.527V17.256C223.527 16.008 223.351 15.08 222.999 14.472C222.663 13.848 222.103 13.536 221.319 13.536C220.679 13.536 220.103 13.728 219.591 14.112C219.095 14.48 218.711 14.976 218.439 15.6C218.167 16.224 218.031 16.856 218.031 17.496V24ZM242.498 17.352C242.466 14.808 241.45 13.536 239.45 13.536C238.426 13.536 237.658 13.912 237.146 14.664C236.634 15.368 236.33 16.264 236.234 17.352H242.498ZM242.954 13.92C243.658 14.912 244.01 16.184 244.01 17.736C244.01 18.04 244.002 18.256 243.986 18.384H236.21C236.21 19.744 236.466 20.84 236.978 21.672C237.538 22.616 238.394 23.088 239.546 23.088C241.034 23.088 241.994 22.432 242.426 21.12L243.65 21.408C243.474 22.016 243.17 22.544 242.738 22.992C242.322 23.44 241.842 23.76 241.298 23.952C240.802 24.128 240.234 24.232 239.594 24.264H239.546C237.85 24.264 236.586 23.656 235.754 22.44C234.986 21.352 234.602 19.968 234.602 18.288C234.602 16.496 235.034 15.064 235.898 13.992C236.778 12.904 237.978 12.36 239.498 12.36C241.05 12.36 242.202 12.88 242.954 13.92ZM246.4 24V12.6H247.936V12.96V13.656V14.448V14.76C248.24 13.944 248.8 13.328 249.616 12.912C250.384 12.544 251.152 12.36 251.92 12.36C252.784 12.36 253.488 12.528 254.032 12.864C254.592 13.216 254.976 13.624 255.184 14.088C255.424 14.648 255.584 15.2 255.664 15.744C255.696 16.192 255.712 16.48 255.712 16.608V17.496V24H254.152V17.304C254.152 16.408 254.056 15.648 253.864 15.024C253.656 14.432 253.272 14.032 252.712 13.824C252.44 13.712 252.096 13.656 251.68 13.656C250.576 13.656 249.728 13.952 249.136 14.544C248.624 15.056 248.272 15.84 248.08 16.896C248 17.408 247.96 17.92 247.96 18.432V24H246.4ZM263.966 23.64C263.406 24.008 262.75 24.192 261.998 24.192C261.006 24.192 260.286 23.896 259.838 23.304C259.406 22.696 259.19 21.72 259.19 20.376V13.728H257.51V12.6H259.31V8.976L260.798 8.568V12.6H263.27V13.728H260.798V21.096C260.798 22.36 261.31 22.992 262.334 22.992C262.67 22.992 263.118 22.864 263.678 22.608L263.966 23.64Z" fill="white"/>
</svg>
