<svg width="406" height="336" viewBox="0 0 406 336" fill="none" xmlns="http://www.w3.org/2000/svg">
<path d="M405.412 21.1754H0.587554C0.431725 21.1754 0.282278 21.1135 0.17209 21.0032C0.0619024 20.8928 0 20.7432 0 20.5872C0 20.4312 0.0619024 20.2816 0.17209 20.1713C0.282278 20.061 0.431725 19.999 0.587554 19.999H405.412C405.568 19.999 405.718 20.061 405.828 20.1713C405.938 20.2816 406 20.4312 406 20.5872C406 20.7432 405.938 20.8928 405.828 21.0032C405.718 21.1135 405.568 21.1754 405.412 21.1754Z" fill="#CACACA"/>
<path d="M13.8121 12.9405C17.3816 12.9405 20.2752 10.0437 20.2752 6.47027C20.2752 2.89684 17.3816 0 13.8121 0C10.2427 0 7.34904 2.89684 7.34904 6.47027C7.34904 10.0437 10.2427 12.9405 13.8121 12.9405Z" fill="#3F3D56"/>
<path d="M36.1392 12.9405C39.7087 12.9405 42.6023 10.0437 42.6023 6.47027C42.6023 2.89684 39.7087 0 36.1392 0C32.5697 0 29.6761 2.89684 29.6761 6.47027C29.6761 10.0437 32.5697 12.9405 36.1392 12.9405Z" fill="#3F3D56"/>
<path d="M58.4663 12.9405C62.0357 12.9405 64.9294 10.0437 64.9294 6.47027C64.9294 2.89684 62.0357 0 58.4663 0C54.8968 0 52.0032 2.89684 52.0032 6.47027C52.0032 10.0437 54.8968 12.9405 58.4663 12.9405Z" fill="#3F3D56"/>
<path d="M254.301 81.0634H151.699C150.417 81.0634 149.188 80.5537 148.281 79.6464C147.375 78.739 146.866 77.5084 146.866 76.2253C146.866 74.9422 147.375 73.7116 148.281 72.8042C149.188 71.8969 150.417 71.3872 151.699 71.3872H254.301C255.583 71.3872 256.812 71.8969 257.719 72.8042C258.625 73.7116 259.134 74.9422 259.134 76.2253C259.134 77.5084 258.625 78.739 257.719 79.6464C256.812 80.5537 255.583 81.0634 254.301 81.0634Z" fill="#E4E4E4"/>
<path d="M237.759 64.5023H168.241C166.961 64.5008 165.733 63.9905 164.828 63.0833C163.922 62.1762 163.414 60.9464 163.414 59.6642C163.414 58.3819 163.922 57.1522 164.828 56.245C165.733 55.3378 166.961 54.8275 168.241 54.826H237.759C239.04 54.826 240.269 55.3358 241.176 56.2431C242.082 57.1504 242.591 58.381 242.591 59.6642C242.591 60.9473 242.082 62.1779 241.176 63.0852C240.269 63.9925 239.04 64.5023 237.759 64.5023Z" fill="#E4E4E4"/>
<path d="M72.6994 217.771C96.3877 217.771 115.591 198.546 115.591 174.832C115.591 151.117 96.3877 131.892 72.6994 131.892C49.0111 131.892 29.808 151.117 29.808 174.832C29.808 198.546 49.0111 217.771 72.6994 217.771Z" fill="#F0F0F0"/>
<path d="M350.025 217.771C373.713 217.771 392.917 198.546 392.917 174.832C392.917 151.117 373.713 131.892 350.025 131.892C326.337 131.892 307.134 151.117 307.134 174.832C307.134 198.546 326.337 217.771 350.025 217.771Z" fill="#F0F0F0"/>
<path d="M203.136 217.771C226.825 217.771 246.028 198.546 246.028 174.832C246.028 151.117 226.825 131.892 203.136 131.892C179.448 131.892 160.245 151.117 160.245 174.832C160.245 198.546 179.448 217.771 203.136 217.771Z" fill="#F0F0F0"/>
<path d="M370.871 193.442C367.491 191.659 363.963 190.172 360.327 188.999L359.863 183.864L341.058 181.836L338.668 188.4L331.919 190.935C331.678 191.027 331.448 191.147 331.234 191.292H331.227C330.122 191.386 329.058 191.754 328.131 192.363C327.502 192.765 326.943 193.267 326.476 193.849C327.389 194.542 328.338 195.184 329.315 195.799L329.358 195.82C329.636 195.991 329.922 196.163 330.207 196.327C330.721 196.634 331.249 196.927 331.777 197.206L332.112 197.377C332.882 197.777 333.667 198.155 334.473 198.505C334.637 198.577 334.816 198.648 334.98 198.72C334.994 198.727 335.001 198.727 335.015 198.734C335.394 198.891 335.771 199.041 336.157 199.184C337.422 199.668 338.713 200.083 340.023 200.427C343.367 201.319 346.814 201.77 350.275 201.769C351.538 201.769 352.786 201.712 354.02 201.591C356.84 201.33 359.624 200.767 362.324 199.912C362.331 199.912 362.339 199.905 362.346 199.905C364.051 199.361 365.718 198.7 367.333 197.927C367.339 197.92 367.354 197.92 367.361 197.913C367.725 197.741 368.074 197.556 368.431 197.377L368.602 197.291C368.888 197.141 369.173 196.991 369.459 196.834C370.172 196.441 370.871 196.027 371.563 195.584C371.755 195.47 371.941 195.349 372.134 195.22C372.404 195.042 372.675 194.856 372.94 194.663C372.276 194.234 371.584 193.827 370.871 193.442Z" fill="#FE7A53"/>
<path d="M349.722 178.59C357.202 178.59 363.266 172.519 363.266 165.031C363.266 157.543 357.202 151.472 349.722 151.472C342.242 151.472 336.179 157.543 336.179 165.031C336.179 172.519 342.242 178.59 349.722 178.59Z" fill="#A0616A"/>
<path d="M340.629 158.427C342.031 160.088 344.404 160.557 346.593 160.749C351.038 161.139 357.501 160.506 361.845 159.502C362.155 162.51 361.31 165.754 363.08 168.228C363.91 165.233 364.392 162.151 364.518 159.045C364.65 157.712 364.476 156.366 364.009 155.111C363.76 154.482 363.339 153.936 362.795 153.534C362.251 153.132 361.605 152.892 360.931 152.839C361.94 152.073 363.122 151.567 364.373 151.366L360.072 149.203L361.177 148.068L353.391 147.591L355.646 146.157C352.252 145.69 348.818 145.581 345.402 145.833C343.815 145.95 342.156 146.173 340.871 147.094C339.585 148.014 338.843 149.843 339.641 151.194C338.642 151.358 337.701 151.775 336.908 152.405C336.115 153.035 335.495 153.858 335.108 154.794C334.619 156.283 334.501 157.869 334.764 159.414C335.058 161.893 335.633 164.33 336.479 166.678L340.629 158.427Z" fill="#2F2E41"/>
<path d="M205.516 151.583C208.678 151.583 211.242 149.016 211.242 145.85C211.242 142.684 208.678 140.117 205.516 140.117C202.353 140.117 199.789 142.684 199.789 145.85C199.789 149.016 202.353 151.583 205.516 151.583Z" fill="#2F2E41"/>
<path d="M200.548 148.833C199.824 148.155 199.288 147.301 198.992 146.354C198.696 145.407 198.651 144.4 198.861 143.43C199.071 142.46 199.528 141.562 200.189 140.822C200.85 140.082 201.691 139.527 202.63 139.21C201.844 139.325 201.089 139.603 200.416 140.026C199.742 140.449 199.164 141.008 198.718 141.667C198.272 142.326 197.968 143.071 197.826 143.854C197.683 144.637 197.705 145.441 197.89 146.216C198.075 146.99 198.419 147.717 198.901 148.35C199.382 148.984 199.99 149.51 200.685 149.896C201.381 150.281 202.149 150.518 202.941 150.59C203.733 150.661 204.531 150.567 205.285 150.313C204.435 150.439 203.567 150.371 202.747 150.115C201.927 149.858 201.175 149.42 200.547 148.832L200.548 148.833Z" fill="#2F2E41"/>
<path d="M205.631 182.584C214.922 182.584 222.453 175.044 222.453 165.743C222.453 156.442 214.922 148.902 205.631 148.902C196.341 148.902 188.809 156.442 188.809 165.743C188.809 175.044 196.341 182.584 205.631 182.584Z" fill="#2F2E41"/>
<path d="M190.666 156.471C193.564 153.207 197.616 151.199 201.966 150.869C206.316 150.54 210.623 151.915 213.979 154.705C213.842 154.573 213.705 154.442 213.563 154.315C210.24 151.334 205.87 149.798 201.415 150.043C196.961 150.288 192.786 152.294 189.809 155.621C186.832 158.948 185.297 163.322 185.542 167.782C185.786 172.241 187.791 176.421 191.114 179.401C191.146 179.43 191.178 179.459 191.21 179.487C191.352 179.614 191.499 179.734 191.645 179.856C188.485 176.846 186.616 172.724 186.434 168.361C186.251 163.998 187.769 159.735 190.667 156.471H190.666Z" fill="#2F2E41"/>
<path d="M205.489 182.441C211.472 182.441 216.323 177.585 216.323 171.595C216.323 165.604 211.472 160.748 205.489 160.748C199.505 160.748 194.654 165.604 194.654 171.595C194.654 177.585 199.505 182.441 205.489 182.441Z" fill="#A0616A"/>
<path d="M224.876 199.855V203.494C224.211 203.919 223.538 204.318 222.852 204.695C222.578 204.846 222.304 204.991 222.03 205.135L221.865 205.217C221.522 205.389 221.186 205.567 220.836 205.732C220.829 205.739 220.815 205.739 220.809 205.746C219.256 206.489 217.654 207.125 216.014 207.648C216.007 207.648 216.001 207.655 215.994 207.655C213.398 208.477 210.721 209.018 208.01 209.268C206.823 209.385 205.623 209.44 204.409 209.44C201.082 209.441 197.768 209.007 194.553 208.149C192.913 207.718 191.304 207.174 189.738 206.522C189.724 206.515 189.717 206.515 189.704 206.508C189.546 206.439 189.374 206.371 189.217 206.302C188.442 205.966 187.687 205.602 186.946 205.217L186.624 205.052C185.835 204.634 185.06 204.194 184.299 203.72L184.258 203.7C183.085 202.968 181.954 202.173 180.87 201.317C180.314 200.891 179.779 200.445 179.258 199.978C178.983 199.745 178.709 199.497 178.449 199.257C177.446 198.331 176.496 197.35 175.602 196.318C175.72 195.603 175.895 194.898 176.123 194.21L176.13 194.203C176.171 194.086 176.219 193.972 176.274 193.86C176.312 193.762 176.355 193.665 176.404 193.572C177.632 191.271 179.854 190.702 182.612 190.578C184.169 190.509 185.89 190.585 187.708 190.564C188.668 190.557 189.662 190.523 190.657 190.434C196.933 189.864 195.795 186.156 196.076 184.158C196.357 182.221 198.099 183.897 198.216 184.007L198.222 184.014C201.774 185.678 205.703 186.367 209.608 186.012C210.28 185.929 210.952 185.881 211.625 185.861C213.394 185.84 213.01 186.348 212.4 186.767C212.104 186.962 211.794 187.137 211.474 187.289C211.474 187.289 211.193 189.006 210.905 191.574C210.63 194.032 219.279 194.883 220.973 195.419H220.98C221.947 195.775 222.81 196.367 223.49 197.142C224.171 197.916 224.647 198.849 224.876 199.855Z" fill="#FE7A53"/>
<path d="M194.512 170.881C194.984 170.881 195.367 170.178 195.367 169.311C195.367 168.444 194.984 167.742 194.512 167.742C194.039 167.742 193.656 168.444 193.656 169.311C193.656 170.178 194.039 170.881 194.512 170.881Z" fill="#A0616A"/>
<path d="M216.466 170.881C216.938 170.881 217.321 170.178 217.321 169.311C217.321 168.444 216.938 167.742 216.466 167.742C215.994 167.742 215.611 168.444 215.611 169.311C215.611 170.178 215.994 170.881 216.466 170.881Z" fill="#A0616A"/>
<path d="M58.977 177.838L61.0352 184.976L87.3376 184.512L87.1071 171.433C86.9247 161.082 79.6169 152.154 69.2768 152.336C58.9367 152.519 52.3619 161.27 52.5444 171.622L54.0465 185.1L58.3349 185.024L58.977 177.838Z" fill="#2F2E41"/>
<path d="M70.4522 182.83C76.9698 182.83 82.2534 177.54 82.2534 171.015C82.2534 164.49 76.9698 159.201 70.4522 159.201C63.9345 159.201 58.6509 164.49 58.6509 171.015C58.6509 177.54 63.9345 182.83 70.4522 182.83Z" fill="#FFB6B6"/>
<path d="M83.371 162.719C83.3553 161.815 83.0725 160.935 82.5581 160.191C82.5038 160.115 82.4492 160.044 82.3946 159.973C81.9573 159.414 81.397 158.964 80.7573 158.658C80.1176 158.352 79.4159 158.198 78.7071 158.209L70.225 158.362L61.7484 158.509C60.534 158.534 59.3787 159.038 58.5353 159.913C57.6919 160.789 57.2291 161.962 57.2482 163.178L59.2666 167.246L60.4283 169.584L60.6193 169.474C67.9558 165.346 70.9559 165.292 80.6655 169.13L80.8618 169.207L81.631 167.236L83.3763 162.763L83.371 162.719Z" fill="#2F2E41"/>
<path d="M93.9424 189.439C91.4111 186.911 82.8473 187.916 82.8473 187.916L60.2431 189.341C55.2299 189.712 50.7134 193.731 49.0771 195.359C49.3386 195.615 49.6062 195.866 49.8792 196.107C54.9025 200.576 61.2168 203.329 67.9073 203.965C74.5977 204.601 81.3167 203.088 87.0908 199.645C89.5128 198.198 92.6117 196.463 94.5534 194.437C95.3227 193.64 95.9382 193.656 96.62 192.782C96.1096 191.409 95.1707 190.236 93.9424 189.439Z" fill="#FE7A53"/>
<path d="M72.6994 336C96.3877 336 115.591 316.776 115.591 293.061C115.591 269.346 96.3877 250.122 72.6994 250.122C49.0111 250.122 29.808 269.346 29.808 293.061C29.808 316.776 49.0111 336 72.6994 336Z" fill="#F0F0F0"/>
<path d="M350.025 336C373.713 336 392.917 316.776 392.917 293.061C392.917 269.346 373.713 250.122 350.025 250.122C326.337 250.122 307.134 269.346 307.134 293.061C307.134 316.776 326.337 336 350.025 336Z" fill="#F0F0F0"/>
<path d="M203.136 336C226.825 336 246.028 316.776 246.028 293.061C246.028 269.346 226.825 250.122 203.136 250.122C179.448 250.122 160.245 269.346 160.245 293.061C160.245 316.776 179.448 336 203.136 336Z" fill="#F0F0F0"/>
<path d="M71.9973 299.22C78.5461 299.22 83.855 293.906 83.855 287.349C83.855 280.793 78.5461 275.479 71.9973 275.479C65.4485 275.479 60.1396 280.793 60.1396 287.349C60.1396 293.906 65.4485 299.22 71.9973 299.22Z" fill="#FFB8B8"/>
<path d="M60.7792 291.063C60.7792 291.063 61.7867 289.292 61.5525 283.375C61.3183 277.458 70.3186 280.805 77.8394 280.24C85.3601 279.676 83.7681 290.119 83.7681 290.119C83.7681 290.119 84.3107 289.498 85.4723 284.458C86.634 279.418 83.9964 274.395 83.9964 274.395C83.2196 269.099 79.0332 270.796 79.0332 270.796C81.0493 271.582 80.6621 273.262 80.6621 273.262C78.9555 270.266 74.7691 271.964 74.7691 271.964C69.1856 268.456 63.5268 273.075 63.5268 273.075C56.7817 274.608 60.7374 279.978 60.7374 279.978C53.9541 283.41 60.7792 291.063 60.7792 291.063Z" fill="#2F2E41"/>
<path d="M91.7828 315.21C88.4029 313.427 84.875 311.94 81.2386 310.767L80.7745 305.632L61.9695 303.604L59.5796 310.168L52.831 312.703C52.5894 312.795 52.3594 312.914 52.1458 313.06H52.1385C51.0336 313.154 49.9695 313.522 49.0427 314.131C48.414 314.533 47.855 315.035 47.3878 315.617C48.3009 316.31 49.2492 316.952 50.2267 317.567L50.2698 317.588C50.548 317.759 50.8335 317.931 51.1185 318.095C51.6324 318.402 52.1603 318.695 52.6882 318.973L53.0236 319.145C53.7939 319.545 54.5787 319.923 55.3849 320.273C55.5489 320.345 55.7275 320.416 55.8915 320.488C55.9055 320.495 55.9128 320.495 55.9268 320.502C56.3052 320.659 56.6831 320.809 57.0682 320.952C58.3338 321.436 59.6246 321.851 60.935 322.195C64.2792 323.087 67.7254 323.538 71.1864 323.537C72.4494 323.537 73.6978 323.48 74.9322 323.359C77.7521 323.098 80.536 322.535 83.236 321.68C83.2427 321.68 83.2506 321.673 83.2573 321.673C84.963 321.129 86.6292 320.468 88.2442 319.695C88.2509 319.688 88.2655 319.688 88.2727 319.681C88.6366 319.509 88.986 319.323 89.3426 319.145L89.5139 319.059C89.7994 318.909 90.0849 318.759 90.3704 318.602C91.0836 318.209 91.7828 317.795 92.4742 317.352C92.6668 317.238 92.8526 317.117 93.0452 316.988C93.3162 316.81 93.5871 316.624 93.8513 316.431C93.188 316.002 92.4961 315.595 91.7828 315.21Z" fill="#FE7A53"/>
<path d="M219.444 312.698L212.306 312.049L208.034 308.926C208.034 308.92 208.032 308.914 208.028 308.909L208.017 308.914L207.847 308.788L207.824 308.986L200.615 311.762L193.207 310.051L190.644 312.827L179.229 316.618C178.68 316.984 178.197 317.441 177.801 317.969L177.802 317.977C178.281 318.352 178.774 318.722 179.273 319.073C180.404 319.892 181.58 320.647 182.795 321.336C185.751 323.023 188.911 324.323 192.198 325.204C192.496 325.286 192.794 325.364 193.091 325.435C193.609 325.562 194.133 325.684 194.657 325.783C195.715 326.004 196.786 326.177 197.87 326.302C199.463 326.495 201.066 326.591 202.671 326.589C203.768 326.589 204.854 326.546 205.928 326.462C207.817 326.309 209.692 326.024 211.539 325.606C211.606 325.59 211.672 325.579 211.738 325.557C214.568 324.907 217.318 323.949 219.94 322.698C220.342 322.505 220.744 322.307 221.141 322.103C222.117 321.6 223.065 321.06 223.985 320.48C224.68 320.05 225.358 319.592 226.019 319.117C226.427 318.825 226.829 318.527 227.226 318.218L227.183 318.127C226.479 316.624 225.394 315.333 224.036 314.38C222.678 313.428 221.095 312.848 219.444 312.698Z" fill="#FE7A53"/>
<path d="M212.625 277.031C211.792 276.205 210.852 275.494 209.831 274.918C203.52 271.431 196.624 271.37 190.914 274.747C189.494 275.584 188.198 276.615 187.061 277.809C183.857 281.157 182.063 285.611 182.051 290.247V303.998H217.977V288.84C217.977 284.779 215.745 280.077 212.625 277.031Z" fill="#2F2E41"/>
<path d="M199.304 303.623C206.47 303.623 212.28 297.807 212.28 290.633C212.28 283.458 206.47 277.643 199.304 277.643C192.138 277.643 186.329 283.458 186.329 290.633C186.329 297.807 192.138 303.623 199.304 303.623Z" fill="#FFB8B8"/>
<path d="M212.614 278.841C212.588 278.565 212.49 278.3 212.33 278.073C212.171 277.846 211.956 277.664 211.705 277.545C203.586 273.748 195.351 273.848 187.243 277.843H187.094L187.045 278.047C185.446 290.374 185.672 290.644 185.771 290.755C185.928 290.933 186.122 291.074 186.339 291.169C186.539 291.257 186.755 291.302 186.973 291.301H205.482L205.526 291.091C205.741 289.988 206.017 288.897 206.353 287.825C207.09 288.902 207.769 290.018 208.387 291.169L208.464 291.301H212.063C212.131 291.301 212.2 291.295 212.267 291.284C212.639 291.24 212.982 291.061 213.232 290.782C213.331 290.677 213.562 290.424 212.614 278.841Z" fill="#2F2E41"/>
<path d="M359.727 311.031L359.26 305.836L340.211 303.782L337.799 310.429L330.96 312.994C330.713 313.086 330.476 313.207 330.257 313.354C328.891 313.478 327.594 314.006 326.529 314.871C326.684 315 326.84 315.124 326.996 315.247C327.028 315.28 327.066 315.307 327.098 315.333C327.533 315.672 327.979 316.006 328.43 316.323C328.549 316.409 328.667 316.495 328.79 316.576C329.781 317.278 330.806 317.93 331.863 318.528C332.873 319.103 333.91 319.634 334.973 320.12C336.927 321.014 338.952 321.742 341.028 322.298C341.318 322.378 341.608 322.454 341.898 322.524C342.403 322.647 342.913 322.766 343.423 322.862C344.455 323.078 345.499 323.246 346.555 323.368C348.108 323.557 349.67 323.65 351.234 323.648C352.303 323.648 353.362 323.606 354.409 323.524C356.249 323.376 358.077 323.097 359.878 322.69C359.942 322.674 360.007 322.663 360.071 322.642C362.829 322.009 365.51 321.075 368.064 319.856C368.457 319.668 368.849 319.474 369.235 319.275C370.186 318.786 371.11 318.259 372.007 317.694C372.33 317.495 372.647 317.291 372.964 317.076C368.091 313.795 361.016 311.445 359.727 311.031Z" fill="#FE7A53"/>
<path d="M348.991 300.492C356.567 300.492 362.708 294.344 362.708 286.759C362.708 279.175 356.567 273.027 348.991 273.027C341.415 273.027 335.274 279.175 335.274 286.759C335.274 294.344 341.415 300.492 348.991 300.492Z" fill="#A0616A"/>
<path d="M339.784 280.069C341.204 281.752 343.607 282.226 345.824 282.419C350.326 282.814 356.872 282.173 361.271 281.156C361.587 284.203 360.73 287.488 362.522 289.995C363.362 286.96 363.851 283.839 363.978 280.693C364.112 279.343 363.936 277.981 363.463 276.709C363.211 276.072 362.785 275.519 362.233 275.112C361.682 274.705 361.028 274.461 360.346 274.408C360.496 274.253 360.6 274.058 360.644 273.846C360.689 273.634 360.672 273.413 360.597 273.21C360.431 272.494 360.066 271.838 359.544 271.321C359.022 270.803 358.365 270.444 357.647 270.285L352.709 269.093C352.709 269.093 348.075 267.059 344.614 267.314C343.007 267.433 341.327 267.659 340.025 268.591C338.723 269.523 337.971 271.376 338.779 272.744C337.767 272.91 336.815 273.333 336.011 273.971C335.208 274.609 334.581 275.442 334.189 276.39C333.694 277.898 333.574 279.505 333.841 281.07C334.138 283.58 334.72 286.049 335.578 288.427L339.784 280.069Z" fill="#2F2E41"/>
<path d="M217.193 163.294C216.777 161.96 215.849 160.845 214.613 160.194C213.386 159.557 212.076 159.096 210.721 158.825C208.352 158.142 205.897 157.806 203.433 157.826C200.974 157.947 198.462 158.796 196.792 160.606C195.122 162.416 194.502 165.289 195.719 167.431L195.584 167.985C197.534 168.217 199.51 167.878 201.271 167.009C203.033 166.141 204.505 164.779 205.51 163.09C206.432 164.548 207.741 165.719 209.291 166.473C210.841 167.227 212.571 167.534 214.285 167.359C214.832 167.314 215.365 167.161 215.852 166.907C216.43 166.526 216.871 165.97 217.112 165.32C217.353 164.671 217.382 163.961 217.193 163.294Z" fill="#2F2E41"/>
<path d="M392.035 3.95768H376.171C375.86 3.95768 375.561 3.83374 375.34 3.61312C375.12 3.3925 374.996 3.09327 374.996 2.78127C374.996 2.46927 375.12 2.17004 375.34 1.94942C375.561 1.7288 375.86 1.60486 376.171 1.60486H392.035C392.347 1.60486 392.646 1.7288 392.866 1.94942C393.086 2.17004 393.21 2.46927 393.21 2.78127C393.21 3.09327 393.086 3.3925 392.866 3.61312C392.646 3.83374 392.347 3.95768 392.035 3.95768Z" fill="#3F3D56"/>
<path d="M392.035 8.36918H376.171C375.86 8.36918 375.561 8.24524 375.34 8.02462C375.12 7.804 374.996 7.50477 374.996 7.19277C374.996 6.88077 375.12 6.58154 375.34 6.36092C375.561 6.1403 375.86 6.01636 376.171 6.01636H392.035C392.347 6.01636 392.646 6.1403 392.866 6.36092C393.086 6.58154 393.21 6.88077 393.21 7.19277C393.21 7.50477 393.086 7.804 392.866 8.02462C392.646 8.24524 392.347 8.36918 392.035 8.36918Z" fill="#3F3D56"/>
<path d="M392.035 12.7808H376.171C375.86 12.7808 375.561 12.6569 375.34 12.4362C375.12 12.2156 374.996 11.9164 374.996 11.6044C374.996 11.2924 375.12 10.9932 375.34 10.7725C375.561 10.5519 375.86 10.428 376.171 10.428H392.035C392.347 10.428 392.646 10.5519 392.866 10.7725C393.086 10.9932 393.21 11.2924 393.21 11.6044C393.21 11.9164 393.086 12.2156 392.866 12.4362C392.646 12.6569 392.347 12.7808 392.035 12.7808Z" fill="#3F3D56"/>
</svg>
