<svg width="450" height="374" viewBox="0 0 450 374" fill="none" xmlns="http://www.w3.org/2000/svg">
<g clip-path="url(#clip0)">
<path d="M297.634 305.761H28.8491V0H297.634V305.761Z" fill="white"/>
<path d="M297.634 305.761H28.8491V0H297.634V305.761ZM32.7871 302.11H293.696V3.65175H32.7871V302.11Z" fill="#E6E6E6"/>
<path d="M297.743 0H29.3022V39.1141H297.743V0Z" fill="#FE7A53"/>
<path d="M67.789 97.1103C80.4114 97.1103 90.6438 86.8809 90.6438 74.2623C90.6438 61.6437 80.4114 51.4143 67.789 51.4143C55.1667 51.4143 44.9343 61.6437 44.9343 74.2623C44.9343 86.8809 55.1667 97.1103 67.789 97.1103Z" fill="#E6E6E6"/>
<path d="M187.306 58.1343H109.017V64.8543H187.306V58.1343Z" fill="#E6E6E6"/>
<path d="M281.548 74.2622H109.017V80.9822H281.548V74.2622Z" fill="#E6E6E6"/>
<path d="M281.548 90.3903H109.017V97.1102H281.548V90.3903Z" fill="#E6E6E6"/>
<path d="M67.789 284.129C80.4114 284.129 90.6438 273.9 90.6438 261.281C90.6438 248.663 80.4114 238.433 67.789 238.433C55.1667 238.433 44.9343 248.663 44.9343 261.281C44.9343 273.9 55.1667 284.129 67.789 284.129Z" fill="#E6E6E6"/>
<path d="M187.306 245.153H109.017V251.873H187.306V245.153Z" fill="#E6E6E6"/>
<path d="M281.548 261.281H109.017V268.001H281.548V261.281Z" fill="#E6E6E6"/>
<path d="M281.548 277.409H109.017V284.129H281.548V277.409Z" fill="#E6E6E6"/>
<path d="M71.5982 9.99402H37.5401V14.922H71.5982V9.99402Z" fill="white"/>
<path d="M71.5982 18.5061H37.5401V23.4341H71.5982V18.5061Z" fill="white"/>
<path d="M71.5982 27.0181H37.5401V31.9461H71.5982V27.0181Z" fill="white"/>
<path d="M326.483 211.25H0V124.294H326.483V211.25Z" fill="white"/>
<path d="M326.483 211.25H0V124.294H326.483V211.25ZM3.93801 207.313H322.545V128.231H3.93801V207.313Z" fill="#CCCCCC"/>
<path d="M40.5149 190.235C52.9942 190.235 63.1107 180.122 63.1107 167.646C63.1107 155.171 52.9942 145.057 40.5149 145.057C28.0355 145.057 17.919 155.171 17.919 167.646C17.919 180.122 28.0355 190.235 40.5149 190.235Z" fill="#FE7A53"/>
<path d="M181.407 148.6H87.9219V155.244H181.407V148.6Z" fill="#3F3D56"/>
<path d="M293.943 164.546H87.9219V171.19H293.943V164.546Z" fill="#3F3D56"/>
<path d="M293.943 180.491H87.9219V187.135H293.943V180.491Z" fill="#3F3D56"/>
<path d="M378.712 234.171C378.999 234.056 379.296 233.964 379.598 233.896L389.566 208.004L385.336 202.755L392.425 195.338C394.473 198.352 404.604 204.7 401.521 209.227L386.05 236.742C386.484 237.518 386.736 238.381 386.788 239.269C386.839 240.156 386.689 241.043 386.348 241.864C386.008 242.685 385.485 243.417 384.821 244.007C384.156 244.597 383.366 245.029 382.51 245.269C375.604 247.339 371.992 236.716 378.712 234.171Z" fill="#A0616A"/>
<path d="M388.145 207.893C386.357 208.408 379.604 197.91 378.475 196.996C377.13 195.725 376.344 193.971 376.29 192.121C376.236 190.271 376.918 188.475 378.187 187.127C379.456 185.778 381.207 184.988 383.058 184.929C384.908 184.87 386.707 185.547 388.059 186.812L398.447 194.08C398.741 194.29 398.987 194.559 399.169 194.871C399.35 195.183 399.463 195.53 399.5 195.889C399.536 196.249 399.495 196.611 399.38 196.953C399.265 197.295 399.078 197.609 398.832 197.873C397.589 198.717 389.911 208.537 388.145 207.893Z" fill="#FE7A53"/>
<path d="M391.679 365.397L383.632 365.397L382.43 334.369L391.68 334.37L391.679 365.397Z" fill="#A0616A"/>
<path d="M393.731 373.195L367.786 373.194C367.543 359.465 385.094 363.208 393.732 362.771L393.731 373.195Z" fill="#2F2E41"/>
<path d="M417.886 362.749L409.893 363.676L402.513 333.296L414.31 331.928L417.886 362.749Z" fill="#A0616A"/>
<path d="M420.824 370.258L395.051 373.247C393.227 359.638 411.092 361.333 419.622 359.904L420.824 370.258Z" fill="#2F2E41"/>
<path d="M393.119 358.031H379.888V308.178L372.162 266.56L361.592 229.581L386.387 217.522L391.115 224.949C391.847 225.616 403.693 236.574 404.971 247.433C406.273 258.501 393.693 353.699 393.156 357.746L393.119 358.031Z" fill="#2F2E41"/>
<path d="M362.489 237.326L358.404 219.428C357.446 218.507 348.38 209.216 358.415 197.343L363.703 183.56L379.195 178.762L385.252 183.45C387.691 185.336 389.63 187.792 390.897 190.603C392.164 193.413 392.72 196.492 392.517 199.568L390.863 224.891L362.489 237.326Z" fill="#2F2E41"/>
<path d="M375.753 149.074C391.717 158.155 378.611 182.117 362.349 173.584C346.386 164.503 359.492 140.541 375.753 149.074Z" fill="#A0616A"/>
<path d="M331.837 181.36C331.888 181.692 331.913 182.029 331.911 182.365L356.885 199.274L363.482 196.086L369.596 205.41C365.902 206.838 356.691 216.003 352.654 211.628L327.312 188.496C326.384 188.764 325.408 188.819 324.455 188.656C323.503 188.493 322.6 188.116 321.815 187.554C321.029 186.992 320.381 186.259 319.92 185.41C319.459 184.562 319.196 183.62 319.151 182.655C318.655 174.837 330.792 173.622 331.837 181.36Z" fill="#A0616A"/>
<path d="M357.351 197.798C357.244 195.779 370.021 191.208 371.266 190.238C372.943 189.127 374.993 188.726 376.965 189.123C378.938 189.52 380.673 190.683 381.789 192.357C382.905 194.031 383.312 196.079 382.92 198.052C382.528 200.025 381.37 201.762 379.699 202.883L369.45 212.093C369.156 212.353 368.81 212.547 368.435 212.663C368.06 212.779 367.665 212.813 367.275 212.763C366.886 212.714 366.512 212.581 366.178 212.375C365.844 212.169 365.558 211.894 365.339 211.569C364.749 210.047 356.235 199.508 357.351 197.798Z" fill="#FE7A53"/>
<path d="M403.709 348.148L387.291 307.031L398.229 291.312L422.275 346.734L403.709 348.148Z" fill="#2F2E41"/>
<path d="M449.344 374H341.048C340.874 374 340.707 373.931 340.584 373.808C340.461 373.685 340.392 373.518 340.392 373.344C340.392 373.17 340.461 373.003 340.584 372.88C340.707 372.757 340.874 372.688 341.048 372.688H449.344C449.518 372.688 449.685 372.757 449.808 372.88C449.931 373.003 450 373.17 450 373.344C450 373.518 449.931 373.685 449.808 373.808C449.685 373.931 449.518 374 449.344 374Z" fill="#CCCCCC"/>
<path d="M418.561 161.004C413.228 161.988 407.648 160.362 403.078 157.443C398.508 154.524 394.836 150.397 391.578 146.064C389.743 143.624 387.969 141.051 385.473 139.295C382.976 137.539 379.521 136.76 376.854 138.245C374.503 139.554 373.466 142.989 374.846 145.139C371.142 144.211 367.213 144.49 363.47 145.282C359.863 146.045 356.198 147.361 353.702 150.073C351.206 152.786 350.262 157.192 352.371 160.215L355.501 160.754C361.214 159.452 363.855 160.03 369.568 161.333C369.375 160.323 370.961 159.785 371.764 160.429C372.566 161.073 372.278 162.353 372.796 163.242C375.004 167.027 375.006 171.671 373.878 175.189C379.539 172.839 383.688 166.477 384.847 160.46C385.42 157.832 385.209 155.094 384.24 152.585C383.773 151.486 383.133 150.469 382.344 149.573C384.466 150.195 386.424 151.28 388.078 152.747C390.993 155.282 393.1 158.59 395.43 161.67C397.761 164.75 400.481 167.734 404.061 169.185C409.551 171.409 416.071 169.464 420.577 165.621C424.094 162.622 426.579 158.647 428.559 154.438C427.418 156.147 425.945 157.609 424.227 158.737C422.51 159.865 420.583 160.636 418.561 161.004Z" fill="#2F2E41"/>
<path d="M428.559 154.438C429.273 153.333 429.801 152.12 430.124 150.845C429.636 152.051 429.116 153.253 428.559 154.438Z" fill="#2F2E41"/>
</g>
<defs>
<clipPath id="clip0">
<rect width="450" height="374" fill="white"/>
</clipPath>
</defs>
</svg>
